# xmcd
#
# Track frame offsets: 
#        150
#        29219
#        45620
#        62181
#        79605
#        99440
#        115914
#        131127
#        147911
#        165122
#        183854
#        212825
#
# Disc length: 3276 seconds
#
# Revision: 0
# Processed by: cddbd v1.5.2PL0 Copyright (c) Steve Scherf et al.
# Submitted via: ExactAudioCopy v1.3
#
DISCID=a50cca0c
DTITLE=Gregg A. Smith - Forever Young
DYEAR=2010
DGENRE=Blues
TTITLE0=Forever Young
TTITLE1=Everywhere I Go They Want My Woman
TTITLE2=Johnny Don't Give Your Woman To Frank
TTITLE3=Let's Keep It Private
TTITLE4=He Put The Wrong Woman Out He Brought The Wrong Woman In
TTITLE5=I Haven't Been A Loving Man All Of My Life
TTITLE6=When It's Just The Two Of Us
TTITLE7=We Need A Friend
TTITLE8=Time To Go To Work
TTITLE9=When People Talk
TTITLE10=Forever Young [Instrumental]
TTITLE11=We Ain't Got Long To Stay Here
EXTD=
EXTT0=
EXTT1=
EXTT2=
EXTT3=
EXTT4=
EXTT5=
EXTT6=
EXTT7=
EXTT8=
EXTT9=
EXTT10=
EXTT11=
PLAYORDER=
